<svg xmlns="http://www.w3.org/2000/svg" version="1.1" xmlns:xlink="http://www.w3.org/1999/xlink" xmlns:svgjs="http://svgjs.dev/svgjs" width="1000" height="202" viewBox="0 0 1000 202"><g transform="matrix(1,0,0,1,-0.6060606060606233,0.018146705739738422)"><svg viewBox="0 0 396 80" data-background-color="#ffffff" preserveAspectRatio="xMidYMid meet" height="202" width="1000" xmlns="http://www.w3.org/2000/svg" xmlns:xlink="http://www.w3.org/1999/xlink"><g id="tight-bounds" transform="matrix(1,0,0,1,0.2400000000000091,-0.0071868141543518504)"><svg viewBox="0 0 395.52 80.01437362830869" height="80.01437362830869" width="395.52"><g><svg viewBox="0 0 499.5008555241362 101.04987884700667" height="80.01437362830869" width="395.52"><g transform="matrix(1,0,0,1,103.98085552413616,13.965648957871402)"><svg viewBox="0 0 395.52000000000004 73.11858093126386" height="73.11858093126386" width="395.52000000000004"><g id="textblocktransform"><svg viewBox="0 0 395.52000000000004 73.11858093126386" height="73.11858093126386" width="395.52000000000004" id="textblock"><g><svg viewBox="0 0 395.52000000000004 73.11858093126386" height="73.11858093126386" width="395.52000000000004"><g transform="matrix(1,0,0,1,0,0)"><svg width="395.52000000000004" viewBox="2.51 -32.03 176.16 32.57" height="73.11858093126386" data-palette-color="#636365"><g class="wordmark-text-0" data-fill-palette-color="primary" id="text-0"><path d="M24.56-29.52Q26.07-29.52 26.64-29.17 27.2-28.83 27.2-27.98L27.2-27.98 27.2-18.6Q27.2-17.77 26.45-17.42 25.71-17.07 23.97-17.07L23.97-17.07Q22.83-17.07 22.2-17.22 21.58-17.38 21.34-17.7 21.09-18.02 21.09-18.6L21.09-18.6Q21.09-21.04 19.76-22.51 18.43-23.97 15.97-23.97L15.97-23.97Q12.57-23.97 10.82-21.53 9.06-19.09 9.06-14.5L9.06-14.5Q9.06-9.96 10.93-7.48 12.79-5 16.21-5L16.21-5Q18.33-5 20.29-5.58 22.24-6.15 24.54-7.32L24.54-7.32Q24.93-7.52 25.27-7.52L25.27-7.52Q26.42-7.52 27.17-5.49L27.17-5.49Q27.51-4.57 27.51-3.83L27.51-3.83Q27.51-2.59 26.39-2.05L26.39-2.05Q21.17 0.54 15.97 0.54L15.97 0.54Q11.96 0.54 8.91-1.29 5.86-3.13 4.19-6.53 2.51-9.94 2.51-14.5L2.51-14.5Q2.51-19.04 4.15-22.45 5.79-25.85 8.68-27.69 11.57-29.52 15.23-29.52L15.23-29.52Q19.51-29.52 21.58-26.44L21.58-26.44 21.58-27.98Q21.58-28.81 22.29-29.16 23-29.52 24.56-29.52L24.56-29.52ZM39.6-32.03Q40.43-32.03 40.78-31.68 41.14-31.32 41.14-30.49L41.14-30.49 41.14-18.63Q44.06-23.1 48.22-23.1L48.22-23.1Q50.44-23.1 52.11-22.12 53.78-21.14 54.69-19.35 55.59-17.55 55.59-15.14L55.59-15.14 55.59-5 57.47-5Q58.05-5 58.37-4.8 58.69-4.59 58.85-4.05 59.01-3.52 59.01-2.49L59.01-2.49Q59.01-1.46 58.85-0.93 58.69-0.39 58.37-0.2 58.05 0 57.47 0L57.47 0 48.34 0Q47.75 0 47.43-0.2 47.12-0.39 46.96-0.93 46.8-1.46 46.8-2.49L46.8-2.49Q46.8-3.52 46.96-4.05 47.12-4.59 47.43-4.8 47.75-5 48.34-5L48.34-5 49.48-5 49.48-13.7Q49.48-15.6 48.83-16.58 48.17-17.55 46.63-17.55L46.63-17.55Q45.21-17.55 43.94-16.37 42.67-15.19 41.9-13.21 41.14-11.23 41.14-8.98L41.14-8.98 41.14-5 42.28-5Q42.87-5 43.19-4.8 43.5-4.59 43.66-4.05 43.82-3.52 43.82-2.49L43.82-2.49Q43.82-1.46 43.66-0.93 43.5-0.39 43.19-0.2 42.87 0 42.28 0L42.28 0 33.15 0Q32.57 0 32.25-0.2 31.93-0.39 31.77-0.93 31.61-1.46 31.61-2.49L31.61-2.49Q31.61-3.52 31.77-4.05 31.93-4.59 32.25-4.8 32.57-5 33.15-5L33.15-5 35.03-5 35.03-27.03 32.66-27.03Q32.08-27.03 31.76-27.22 31.44-27.42 31.28-27.95 31.13-28.49 31.13-29.52L31.13-29.52Q31.13-30.54 31.28-31.08 31.44-31.62 31.76-31.82 32.08-32.03 32.66-32.03L32.66-32.03 39.6-32.03ZM74.95-23.1Q78.66-23.1 81.44-21.58 84.22-20.07 85.72-17.38 87.23-14.7 87.23-11.28L87.23-11.28Q87.23-7.86 85.72-5.18 84.22-2.49 81.44-0.98 78.66 0.54 74.95 0.54L74.95 0.54Q71.24 0.54 68.45-0.98 65.67-2.49 64.17-5.18 62.67-7.86 62.67-11.28L62.67-11.28Q62.67-14.7 64.17-17.38 65.67-20.07 68.45-21.58 71.24-23.1 74.95-23.1L74.95-23.1ZM74.95-17.55Q73.19-17.55 71.89-16.78 70.6-16.02 69.9-14.6 69.21-13.18 69.21-11.28L69.21-11.28Q69.21-9.38 69.9-7.96 70.6-6.54 71.89-5.77 73.19-5 74.95-5L74.95-5Q76.7-5 78-5.77 79.29-6.54 79.99-7.96 80.68-9.38 80.68-11.28L80.68-11.28Q80.68-13.18 79.99-14.6 79.29-16.02 78-16.78 76.7-17.55 74.95-17.55L74.95-17.55ZM112.57-23.1Q114.64-23.1 116.47-21.73L116.47-21.73Q117.55-20.95 117.55-19.68L117.55-19.68Q117.55-18.87 117.11-17.77L117.11-17.77Q116.67-16.67 116.12-16.11 115.57-15.55 114.96-15.55L114.96-15.55Q114.62-15.55 114.23-15.75L114.23-15.75Q112.86-16.5 111.39-16.5L111.39-16.5Q109.51-16.5 107.88-15.31 106.24-14.11 105.25-12.01 104.26-9.91 104.26-7.32L104.26-7.32 104.26-5 111.27-5Q111.86-5 112.18-4.8 112.49-4.59 112.65-4.05 112.81-3.52 112.81-2.49L112.81-2.49Q112.81-1.46 112.65-0.93 112.49-0.39 112.18-0.2 111.86 0 111.27 0L111.27 0 94.57 0Q93.99 0 93.67-0.2 93.35-0.39 93.19-0.93 93.03-1.46 93.03-2.49L93.03-2.49Q93.03-3.52 93.19-4.05 93.35-4.59 93.67-4.8 93.99-5 94.57-5L94.57-5 98.16-5 98.16-17.55 95.31-17.55Q94.72-17.55 94.4-17.75 94.08-17.94 93.93-18.48 93.77-19.02 93.77-20.04L93.77-20.04Q93.77-21.07 93.93-21.61 94.08-22.14 94.4-22.35 94.72-22.56 95.31-22.56L95.31-22.56 101.99-22.56Q102.82-22.56 103.18-22.2 103.53-21.85 103.53-21.02L103.53-21.02 103.53-15.72Q105.36-19.26 107.74-21.18 110.12-23.1 112.57-23.1L112.57-23.1ZM134.9-23.1Q138.61-23.1 141.4-21.58 144.18-20.07 145.68-17.38 147.18-14.7 147.18-11.28L147.18-11.28Q147.18-7.86 145.68-5.18 144.18-2.49 141.4-0.98 138.61 0.54 134.9 0.54L134.9 0.54Q131.19 0.54 128.41-0.98 125.62-2.49 124.12-5.18 122.62-7.86 122.62-11.28L122.62-11.28Q122.62-14.7 124.12-17.38 125.62-20.07 128.41-21.58 131.19-23.1 134.9-23.1L134.9-23.1ZM134.9-17.55Q133.14-17.55 131.85-16.78 130.56-16.02 129.86-14.6 129.16-13.18 129.16-11.28L129.16-11.28Q129.16-9.38 129.86-7.96 130.56-6.54 131.85-5.77 133.14-5 134.9-5L134.9-5Q136.66-5 137.95-5.77 139.25-6.54 139.94-7.96 140.64-9.38 140.64-11.28L140.64-11.28Q140.64-13.18 139.94-14.6 139.25-16.02 137.95-16.78 136.66-17.55 134.9-17.55L134.9-17.55ZM164.61-23.1Q169.98-23.1 172.38-20.78 174.77-18.46 174.77-14.14L174.77-14.14 174.77-7.08Q174.77-6.1 175.18-5.55 175.6-5 176.38-5L176.38-5 177.14-5Q177.72-5 178.04-4.8 178.36-4.59 178.52-4.05 178.67-3.52 178.67-2.49L178.67-2.49Q178.67-1.46 178.52-0.93 178.36-0.39 178.04-0.2 177.72 0 177.14 0L177.14 0 174.4 0Q172.89 0 171.73-0.62 170.57-1.25 169.96-2.59L169.96-2.59Q168.03-1.1 165.88-0.28 163.73 0.54 161.46 0.54L161.46 0.54Q158.7 0.54 156.7-0.4 154.7-1.34 153.64-3.09 152.58-4.83 152.58-7.2L152.58-7.2Q152.58-10.62 154.99-12.5 157.41-14.38 161.76-14.38L161.76-14.38Q165-14.38 168.66-13.65L168.66-13.65 168.66-14.36Q168.66-15.99 167.64-16.77 166.61-17.55 164.03-17.55L164.03-17.55Q162.59-17.55 160.82-17.2 159.05-16.85 157.31-16.26L157.31-16.26Q156.9-16.14 156.6-16.14L156.6-16.14Q155.99-16.14 155.52-16.59 155.04-17.04 154.65-18.12L154.65-18.12Q154.28-19.19 154.28-19.87L154.28-19.87Q154.28-21.12 155.41-21.53L155.41-21.53Q157.58-22.31 160.02-22.71 162.46-23.1 164.61-23.1L164.61-23.1ZM162.37-9.35Q160.66-9.35 159.77-8.74 158.87-8.13 158.87-6.96L158.87-6.96Q158.87-5.81 159.74-5.21 160.61-4.61 162.24-4.61L162.24-4.61Q163.93-4.61 165.58-5.29 167.22-5.96 168.66-7.13L168.66-7.13 168.66-8.69Q165.44-9.35 162.37-9.35L162.37-9.35Z" fill="#636365" data-fill-palette-color="primary"></path></g></svg></g></svg></g></svg></g></svg></g><g><svg viewBox="0 0 86.71931341220711 101.04987884700667" height="101.04987884700667" width="86.71931341220711"><g><svg xmlns="http://www.w3.org/2000/svg" viewBox="16.134273268835397 10.61400000000001 95.31046706898728 111.06074034964686" x="0" y="0" height="101.04987884700667" width="86.71931341220711" class="icon-icon-0" data-fill-palette-color="accent" id="icon-0"></svg></g></svg></g></svg></g><defs></defs><mask id="fa828e36-f0cd-46f4-a846-bd491a426295"><g id="SvgjsG1004"><svg viewBox="0 0 395.52 80.01437362830869" height="80.01437362830869" width="395.52"><g><svg viewBox="0 0 499.5008555241362 101.04987884700667" height="80.01437362830869" width="395.52"><g transform="matrix(1,0,0,1,103.98085552413616,13.965648957871402)"><svg viewBox="0 0 395.52000000000004 73.11858093126386" height="73.11858093126386" width="395.52000000000004"><g id="SvgjsG1003"><svg viewBox="0 0 395.52000000000004 73.11858093126386" height="73.11858093126386" width="395.52000000000004" id="SvgjsSvg1002"><g><svg viewBox="0 0 395.52000000000004 73.11858093126386" height="73.11858093126386" width="395.52000000000004"><g transform="matrix(1,0,0,1,0,0)"><svg width="395.52000000000004" viewBox="2.51 -32.03 176.16 32.57" height="73.11858093126386" data-palette-color="#636365"><g class="wordmark-text-0" data-fill-palette-color="primary" id="SvgjsG1001"></g></svg></g></svg></g></svg></g></svg></g><g><svg viewBox="0 0 86.71931341220711 101.04987884700667" height="101.04987884700667" width="86.71931341220711"><g><svg xmlns="http://www.w3.org/2000/svg" viewBox="16.134273268835397 10.61400000000001 95.31046706898728 111.06074034964686" x="0" y="0" height="101.04987884700667" width="86.71931341220711" class="icon-icon-0" data-fill-palette-color="accent" id="SvgjsSvg1000"><g fill="white"><path d="M30.172 76.56c2.026 1.292 3.9 2.05 6.475 1.429A15.783 15.783 0 0 1 41 77.144a8.054 8.054 0 0 1 2.9 1.317 18.693 18.693 0 0 0-4.051-3.02 8.9 8.9 0 0 1-3.915-3.467c-1.5-3-1.8-5.941-5.394-7.208a55.349 55.349 0 0 0-9.519-2.7c-1.542-0.261-0.883-2.6 0.646-2.337 4.685 0.783 12.589 2.013 14.714 7.035 0.721 1.7 1.132 4 2.623 5.232a29.7 29.7 0 0 0 4.076 2.349c2.536 1.516 3.915 3.592 5.63 5.791a24.414 24.414 0 0 1 1.131-8.128H49.8c-8.065-3.343-12.365-12.54-21.077-14.64-2.5-0.609-10.589-2.137-12.267 1.28-1.044 2.125 0.684 4.834 1.889 6.537A43.654 43.654 0 0 0 30.172 76.56Z" fill="white"></path><path d="M67.008 118.865a3.08 3.08 0 0 1-0.3-0.261 6.553 6.553 0 0 1-3.393 1.019c0.211 1.7 2.423 2.175 3.976 2.026a5.594 5.594 0 0 0 4.127-2.2A6.374 6.374 0 0 1 67.008 118.865Z" fill="white"></path><path d="M62.413 95.559c-0.015 0.017-0.025 0.036-0.041 0.053l0.04-0.05Z" fill="white"></path><path d="M86.347 51.6a3.3 3.3 0 0 0-2.461-1.292 1.15 1.15 0 0 1-1.044-0.709 22.515 22.515 0 0 0-3.567 3.2 34.376 34.376 0 0 0-5.941 10.265c0.609 0.3 1.219 0.621 1.778 0.969A30.627 30.627 0 0 1 80 67.45c1.6-2.361 2.461-5.195 4.275-7.407a68.058 68.058 0 0 1 8.19-7.867c1.939-1.7 4.152-3.828 6.637-4.66 2.4-0.821 3.766-0.187 2.883-3.281a1.265 1.265 0 0 1 0.559-1.368c2.56-1.926 0.137-7.046-0.584-9.507A69.509 69.509 0 0 0 98.34 22.61c-2.2-4.549-5.369-7.3-9.259-10.253 0.211 0.248 0.422 0.5 0.634 0.77a65.036 65.036 0 0 1 6.947 11.11c1.6 3.356 3.033 7.383 2.3 11.1a9.866 9.866 0 0 1 1.492-0.087 1.212 1.212 0 0 1 0 2.423 3.158 3.158 0 0 0-1.666 0.249 1.137 1.137 0 0 1-0.833 0.137 2.05 2.05 0 0 1-0.136 0.223 6.17 6.17 0 0 1 3.045 1.268 1.257 1.257 0 0 1 0.434 1.665 1.228 1.228 0 0 1-1.665 0.435 3.525 3.525 0 0 0-3-0.92c-0.037 0.013-0.062 0-0.1 0.013a7.528 7.528 0 0 1 3.305 3.393c0.721 1.379-1.366 2.61-2.087 1.218a4.65 4.65 0 0 0-3.418-2.759c-0.075 0-0.124-0.05-0.187-0.074a11.487 11.487 0 0 0-1.627 1.341 6.481 6.481 0 0 1 2.162 1.678 1.238 1.238 0 0 1 0 1.715 1.2 1.2 0 0 1-1.715 0 4.926 4.926 0 0 0-1.64-1.3 2.925 2.925 0 0 1-1.554 0.509 10.736 10.736 0 0 0-4.6 1.616 5.684 5.684 0 0 1 2.884 1.814 1.238 1.238 0 0 1 0 1.715A1.215 1.215 0 0 1 86.347 51.6Z" fill="white"></path><path d="M53.015 57.607c-0.112-0.037-0.236-0.075-0.348-0.124A6.454 6.454 0 0 1 50.939 56.3a7.118 7.118 0 0 0-2.026 1.318c-1.13 1.081-2.846-0.634-1.715-1.715a8.963 8.963 0 0 1 2.051-1.442 9.462 9.462 0 0 0-2.659-2.349l-0.113-0.075a1.137 1.137 0 0 1-0.174 0.088 17.723 17.723 0 0 0-3.318 1.242 1.223 1.223 0 0 1-1.491-0.845 1.246 1.246 0 0 1 0.845-1.492c0.5-0.2 0.969-0.422 1.442-0.621-0.846-0.572-1.691-1.156-2.523-1.752A1.175 1.175 0 0 1 41 48.9a7.78 7.78 0 0 0-2.238 1.889 1.213 1.213 0 0 1-1.714 0 1.237 1.237 0 0 1 0-1.715 8.348 8.348 0 0 1 2.075-1.84 26.046 26.046 0 0 0-2.336-1.366 1.316 1.316 0 0 1-0.833 0.882 2 2 0 0 0-1.442 1.429c-0.348 1.517-2.684 0.87-2.336-0.646a4.171 4.171 0 0 1 2.262-2.735c-0.286-0.123-0.56-0.248-0.833-0.4-0.05 0.025-0.087 0.062-0.136 0.062a7.081 7.081 0 0 0-3.232 1.33 1.21 1.21 0 0 1-1.665-0.435A1.24 1.24 0 0 1 29 43.7a7.708 7.708 0 0 1 1.989-1.069c-0.572-0.472-1.131-0.969-1.653-1.466-0.05 0-0.087 0.024-0.137 0.024a2.2 2.2 0 0 0-1.255 0.249 1.209 1.209 0 0 1-1.218-2.088 3.979 3.979 0 0 1 1.715-0.547 12.225 12.225 0 0 0 0.672-1.181 1.635 1.635 0 0 1-0.324-0.111 3.146 3.146 0 0 0-1.665-0.248 1.193 1.193 0 0 1-1.156-1.442 1.132 1.132 0 0 1 1.156-0.982 5.5 5.5 0 0 1 2.858 0.559c1.281-4.163 1.131-8.861 3.269-12.8a39.23 39.23 0 0 1 4.412-7.084c1.367-1.591 2.983-3.057 3.927-4.9C36.4 13.14 33.54 18.285 30.843 23.355c-1.8 3.393-4.487 7.88-5.506 12.317-0.795 3.343-0.646 6.661 1.491 9.482 3.654 4.81 9.508 7.034 14.007 10.887 4.35 3.729 7.432 8.253 10.4 13.075a18.592 18.592 0 0 1 5.941-5.693 1.86 1.86 0 0 1 0.162-0.1 5.184 5.184 0 0 1-0.821-2.833 2.208 2.208 0 0 0-0.7-1.691 1.7 1.7 0 0 1-0.323 0.249 14.487 14.487 0 0 0-3.691 2.3c-1.131 1.081-2.846-0.634-1.715-1.715A13.026 13.026 0 0 1 53.015 57.607Z" fill="white"></path><path d="M82.444 70.209a0.815 0.815 0 0 1-0.149 0.2 16.13 16.13 0 0 1 1.367 5.63A1.055 1.055 0 0 1 83.9 75.8c5.357-3.542 7.171-8.29 10.13-13.646 1.913-3.493 4.063-3.94 7.269-5.829a33.984 33.984 0 0 0 4.338-3.542c-3.728 0.422-8.215 3.032-10.576 4.4A32.134 32.134 0 0 0 82.444 70.209Z" fill="white"></path><path d="M103.1 69.762c3.095-3.542 7.233-8.911 8.239-13.646a2.327 2.327 0 0 0-0.459-2.213 1.238 1.238 0 0 1-1.131-0.223 4.106 4.106 0 0 0-0.485-0.311 4.106 4.106 0 0 0-2.535 1.317 38.111 38.111 0 0 1-3.033 3c-2.224 1.864-5.393 1.739-6.96 4.573-2.92 5.294-4.946 10.1-9.321 13.894C93 74.646 99 74.459 103.1 69.762Z" fill="white"></path><path d="M59.4 64.82c-2.52 1.62-5.83 3.59-7.16 6.41-1.11 2.38-1.14 7.23-1.11 8.57a3.531 3.531 0 0 1 0.72 0.03 3.413 3.413 0 0 1 2.16 5.5 4.051 4.051 0 0 1-2.3 1.47c0.96 3.77 3.47 6.99 4.05 10.93 0.41 2.78-0.32 7.44 1.68 9.86 0.11-0.47 0.22-0.94 0.31-1.41a43.629 43.629 0 0 0 0.27-8.63 1.216 1.216 0 0 1 2.43 0c0.03 3.07 0.36 6.25-0.36 9.27-0.59 2.43-2.35 6.1-0.75 8.44 1.17 1.69 5 2.56 6.49 1.19-0.08-0.67-0.09-1.34-0.13-1.93-0.03-0.07-0.08-0.14-0.11-0.22-0.06-0.05-0.16-0.07-0.22-0.15a5.124 5.124 0 0 0-3.56-1.92 1.279 1.279 0 0 1-1.24-1.46c-0.04-0.12-0.3-0.23-0.3-0.37v-1.66c0-1.25 2.49-1.25 2.49 0v1.24a8.794 8.794 0 0 1 3.85 2.11 13.044 13.044 0 0 1 3.59-2.14c-0.11-0.37-0.23-0.73-0.32-1.09a1.215 1.215 0 0 1 2.34-0.65c0.17 0.7 0.38 1.38 0.62 2.07a2.1 2.1 0 0 1-1.27 1.7 9.154 9.154 0 0 0-2.87 1.68 4.876 4.876 0 0 1-0.11 2.57c0.41 0.86 1.15 1.22 2.76 0.66 3.58-1.23 3.89-4.36 3.61-7.53-0.35-3.94-1.08-7.84-1.19-11.81-0.05-1.55 2.37-1.55 2.42 0 0.08 2.54 0.71 5.58 1.08 8.63 2.91-3.31 2.14-8.59 2.07-12.72a14.553 14.553 0 0 1 0.74-5.76c0.35-0.95 0.75-1.76 1.07-2.58a1.364 1.364 0 0 0-0.17 0.04 3.022 3.022 0 0 1-3.17-1.84c-0.52-1.6 0.99-3.24 2.48-3.57a5.6 5.6 0 0 1 0.59-0.07 1.176 1.176 0 0 1 0.53-0.98c-0.1-3.56-0.63-7.66-3.02-9.52a37.634 37.634 0 0 0-7.17-4.75c-4.39-1.95-0.68 6.19-4.98 6.02-1.29-0.05-2.55-0.17-3.27-1.4C62.16 67.69 64.21 61.72 59.4 64.82ZM76.67 93.37a1.224 1.224 0 0 1-1.5 0.84 15.139 15.139 0 0 1-2.77-1.36 1.211 1.211 0 0 1 1.22-2.09 13.008 13.008 0 0 0 2.2 1.12A1.241 1.241 0 0 1 76.67 93.37ZM74.89 74.01a12.226 12.226 0 0 1 2.15 0.9c1.4 0.7 0.17 2.79-1.22 2.09a9.054 9.054 0 0 0-1.58-0.65A1.215 1.215 0 0 1 74.89 74.01Zm-2.34 2.91a11.337 11.337 0 0 1 4.49 1.25 1.215 1.215 0 0 1-1.22 2.1 8.313 8.313 0 0 0-3.27-0.93 1.243 1.243 0 0 1-1.22-1.21A1.216 1.216 0 0 1 72.55 76.92Zm-1.95 4a1.224 1.224 0 0 1 1.49-0.85 16.955 16.955 0 0 1 2.93 1.52 1.211 1.211 0 0 1-1.22 2.09 13.336 13.336 0 0 0-2.35-1.27A1.232 1.232 0 0 1 70.6 80.92Zm1.47 12.94c0.26 0.15 0.51 0.32 0.78 0.47 1.37 0.75 0.14 2.84-1.23 2.09-0.26-0.14-0.51-0.32-0.77-0.46C69.48 95.21 70.7 93.11 72.07 93.86ZM54.05 78.52c-1.42-0.59-0.8-2.94 0.64-2.33a23.774 23.774 0 0 1 5.66 3.1c1.24 0.96-0.49 2.67-1.71 1.72A20.386 20.386 0 0 0 54.05 78.52ZM59.42 93.9c-1.09 1.12-2.8-0.59-1.71-1.71a8.029 8.029 0 0 1 1.8-1.59c1.36-0.76 2.58 1.33 1.22 2.09A6.543 6.543 0 0 0 59.42 93.9Zm3.06 1.57c-0.44 1.13-2.4 1.01-2.33-0.4a1.66 1.66 0 0 1 0.51-1.17C61.69 92.81 63.3 94.34 62.48 95.47Zm-0.8-16.76c-1.63-0.73-3.18-2.39-4.98-2.63-1.53-0.2-1.55-2.63 0-2.42 2.39 0.32 4.07 2 6.2 2.96C64.33 77.26 63.09 79.35 61.68 78.71Zm4.83 3.49c3.89 3.43 2.35 8.52 2.64 13.08 0.22 3.44 2.22 8.24-1.83 10.15a1.1 1.1 0 0 1-1.9 0.44c-2.1-2.57-2.51-4.78-2.08-8.05 0.69-5.07-0.51-10.15 1.15-15.08A1.222 1.222 0 0 1 66.51 82.2Zm-2.43-7.88c1.12 1.1-0.59 2.81-1.71 1.72-0.71-0.69-1.54-1.26-2.18-2.02a1.216 1.216 0 0 1 1.72-1.72A27.594 27.594 0 0 0 64.08 74.32Z" fill="white"></path><path d="M68.527 102.528a41.084 41.084 0 0 1 0.414-4.764 1.212 1.212 0 0 0-1.212-1.212 1.24 1.24 0 0 0-1.211 1.212 40.866 40.866 0 0 0-0.415 4.764A1.213 1.213 0 0 0 68.527 102.528Z" fill="white"></path></g></svg></g></svg></g></svg></g><defs><mask></mask></defs></svg></g></mask><linearGradient x1="0" x2="1" y1="0.5" y2="0.5" id="8c2d4c13-7a31-4d87-b262-d4eb0804036c"><stop stop-color="#ffa62e" offset="0"></stop><stop stop-color="#f71b3d" offset="1"></stop></linearGradient><rect width="395.52" height="80.01437362830869" fill="url(#8c2d4c13-7a31-4d87-b262-d4eb0804036c)" mask="url(#fa828e36-f0cd-46f4-a846-bd491a426295)" data-fill-palette-color="accent"></rect></svg><rect width="395.52" height="80.01437362830869" fill="none" stroke="none" visibility="hidden"></rect></g></svg></g></svg>